<svg xmlns:xlink="http://www.w3.org/1999/xlink" xmlns="http://www.w3.org/2000/svg" width="40" height="40" viewBox="0 0 40 40">
    <g fill="none" fill-rule="evenodd">
        <g fill="#FFF">
            <g>
                <g>
                    <g>
                        <path fill-rule="nonzero" d="M23.704 0c2.528 0 4.574 2.05 4.574 4.583V17.15c-6.28.614-11.187 5.909-11.187 12.35 0 1.975.461 3.843 1.283 5.5h-13.8C2.046 35 0 32.95 0 30.417V4.583C0 2.05 2.046 0 4.574 0zM14.97 20H6.654c-.915 0-1.664.75-1.664 1.667 0 .916.749 1.666 1.664 1.666h8.317c.915 0 1.663-.75 1.663-1.666 0-.917-.748-1.667-1.663-1.667zm6.653-6.667H6.654c-.915 0-1.664.75-1.664 1.667s.749 1.667 1.664 1.667h14.97c.915 0 1.664-.75 1.664-1.667s-.749-1.667-1.664-1.667zm-8.317-6.666H6.654c-.915 0-1.664.75-1.664 1.666C4.99 9.25 5.74 10 6.654 10h6.653c.915 0 1.664-.75 1.664-1.667 0-.916-.749-1.666-1.664-1.666z" transform="translate(-1497 -172) translate(137 140) translate(1328) translate(32 32)"/>
                        <path d="M29.5 19C35.299 19 40 23.701 40 29.5S35.299 40 29.5 40 19 35.299 19 29.5 23.701 19 29.5 19zm2.875 3.962c-.117-.135-.3-.18-.46-.114-.134.054-.23.176-.259.32l-.008.088v2.625h-1.67c-3.685 0-6.683 3.14-6.683 7 0 .176.102.336.259.403.154.069.334.032.455-.094 1.731-1.814 4.009-2.846 6.443-2.93l.319-.005h.877v2.625c0 .181.106.343.267.409.049.019.1.029.15.029.087 0 .172-.029.243-.082l.067-.061 4.176-4.812c.124-.143.141-.35.053-.512l-.053-.077-4.176-4.812z" transform="translate(-1497 -172) translate(137 140) translate(1328) translate(32 32)"/>
                    </g>
                </g>
            </g>
        </g>
    </g>
</svg>